Coordinates
version=1
nRows=7
nColumns=63
inDegrees=yes

Units are S.I. units (second, meters, Newtons, ...)
If the header above contains a line with 'inDegrees', this indicates whether rotational values are in degrees (yes) or radians (no).

endheader
time	pelvis_tilt	pelvis_list	pelvis_rotation	pelvis_tx	pelvis_ty	pelvis_tz	hip_flexion_r	hip_adduction_r	hip_rotation_r	knee_angle_r	knee_angle_r_beta	ankle_angle_r	subtalar_angle_r	mtp_angle_r	hip_flexion_l	hip_adduction_l	hip_rotation_l	knee_angle_l	knee_angle_l_beta	ankle_angle_l	subtalar_angle_l	mtp_angle_l	L5_S1_Flex_Ext	L5_S1_Lat_Bending	L5_S1_axial_rotation	L4_L5_Flex_Ext	L4_L5_Lat_Bending	L4_L5_axial_rotation	L3_L4_Flex_Ext	L3_L4_Lat_Bending	L3_L4_axial_rotation	L2_L3_Flex_Ext	L2_L3_Lat_Bending	L2_L3_axial_rotation	L1_L2_Flex_Ext	L1_L2_Lat_Bending	L1_L2_axial_rotation	L1_T12_Flex_Ext	L1_T12_Lat_Bending	L1_T12_axial_rotation	Abs_r3	Abs_r2	Abs_r1	Abs_t1	Abs_t2	neck_flexion	neck_bending	neck_rotation	arm_flex_r	arm_add_r	arm_rot_r	elbow_flex_r	pro_sup_r	wrist_flex_r	wrist_dev_r	arm_flex_l	arm_add_l	arm_rot_l	elbow_flex_l	pro_sup_l	wrist_flex_l	wrist_dev_l
      0.00000000	     -7.72253392	    -15.19111135	    102.50441237	      0.18249916	      0.31222462	      0.64930722	     -1.26241883	    -11.40732869	    -12.09768351	      7.64840040	      0.13348977	     31.92613001	     10.64146957	      0.00000000	     -2.02664765	     11.20111027	      5.85038893	      0.85845598	      0.01498288	     24.51549334	     -8.73290650	      0.00000000	      0.38544315	     -0.90004976	     -0.19312779	      0.71580648	     -1.19706618	     -0.20519828	      0.63324455	     -2.18838098	     -0.20519828	      0.44052298	     -2.18838098	     -0.16898682	      0.35792251	     -1.83538147	     -0.15691633	      0.22024222	     -1.39417708	     -0.14484584	      2.75318189	    -10.18154287	     -1.07411883	      0.00000000	      0.00000000	     27.46229133	      4.65294997	     -1.11264957	     18.50309837	     10.84021864	    188.04400572	      2.01369102	      2.43058276	     -1.07444059	     -8.74609670	     15.97659065	      0.76426943	     79.57014887	     25.76186803	     12.98879826	     -7.11991214	      6.72702111
      0.01694915	     -7.60809401	    -15.03322636	    102.48852878	      0.18232615	      0.31229864	      0.64824920	     -1.44655066	    -11.19823317	    -11.79656324	      7.56192816	      0.13198054	     32.24720850	     10.86791123	      0.00000000	     -2.40023750	     11.02157287	      5.41098318	      1.05791858	      0.01846416	     23.41261884	     -8.87423312	      0.00000000	      0.39120432	     -0.88209974	     -0.22629232	      0.72650554	     -1.17319266	     -0.24043559	      0.64270957	     -2.14473731	     -0.24043559	      0.44710742	     -2.14473731	     -0.19800578	      0.36327233	     -1.79877779	     -0.18386251	      0.22353415	     -1.36637250	     -0.16971924	      2.79433332	     -9.97848869	     -1.25856999	      0.00000000	      0.00000000	     27.25061073	      4.63597671	     -1.09981356	     18.21063736	     10.83002967	    187.92456397	      1.76974342	      2.40331038	     -1.08510736	     -8.74487997	     15.95735478	      0.76599431	     79.67415753	     25.77233826	     13.18285898	     -7.11926826	      6.62039297
      0.03389831	     -7.51980699	    -14.44081224	    101.51201374	      0.18320903	      0.31273055	      0.64692878	     -1.97866127	    -10.94594172	    -11.03566835	      7.16927266	      0.12512741	     32.14349860	     11.29102250	      0.00000000	     -3.18578257	     10.83615273	      3.20980198	      0.98836667	      0.01725025	     23.09908372	     -7.50392588	      0.00000000	      0.32929764	     -0.84136248	     -0.07223162	      0.61153864	     -1.11901210	     -0.07674610	      0.54100309	     -2.04568874	     -0.07674610	      0.37635427	     -2.04568874	     -0.06320267	      0.30578579	     -1.71570637	     -0.05868819	      0.18816067	     -1.30327048	     -0.05417372	      2.35214009	     -9.51766065	     -0.40173061	      0.00000000	      0.00000000	     27.13191804	      4.36114633	     -0.49192804	     18.01959236	     10.70105548	    185.41082757	      1.78197971	      2.32414213	     -0.66422881	     -8.33499585	     15.84557844	      0.92380792	     79.22505701	     25.42284687	     17.74614148	     -6.93235503	      6.13836820
      0.05084746	     -7.44849374	    -14.37256961	    101.39680043	      0.18314725	      0.31282767	      0.64662143	     -2.00762146	    -10.89986211	    -11.71602214	      7.14330440	      0.12467418	     32.23663249	     12.08831330	      0.00000000	     -3.32623512	     10.78654630	      5.63218038	      0.97766174	      0.01706342	     21.74509929	    -11.46234734	      0.00000000	      0.33227369	     -0.82638616	     -0.05248126	      0.61706546	     -1.09909359	     -0.05576134	      0.54589244	     -2.00927530	     -0.05576134	      0.37975560	     -2.00927530	     -0.04592110	      0.30854934	     -1.68516665	     -0.04264102	      0.18986118	     -1.28007216	     -0.03936095	      2.37339771	     -9.34824550	     -0.29188503	      0.00000000	      0.00000000	     27.03310357	      4.44711974	     -0.21801750	     17.76125595	     10.60365675	    182.02036956	      1.97266531	      2.24880581	     -0.42637321	     -8.34234575	     15.85147176	      0.94283545	     80.07645783	     25.12489712	     19.04209660	     -6.48199272	      5.63159959
      0.06779661	     -7.45819065	    -14.27123706	    101.18959174	      0.18321810	      0.31304549	      0.64649581	     -2.07008313	    -10.89384970	    -11.72138532	      7.07337232	      0.12345364	     32.14340985	     11.87990825	      0.00000000	     -3.45304063	     10.78122672	      5.56255353	      0.93630189	      0.01634155	     21.51340778	    -11.60048120	      0.00000000	      0.32116580	     -0.81728131	     -0.02629317	      0.59643701	     -1.08698414	     -0.02793650	      0.52764329	     -1.98713777	     -0.02793650	      0.36706039	     -1.98713777	     -0.02300653	      0.29823456	     -1.66660004	     -0.02136320	      0.18351414	     -1.26596874	     -0.01971988	      2.29405520	     -9.24524960	     -0.14623474	      0.00000000	      0.00000000	     27.00500039	      4.42551773	      0.09254237	     17.60254425	     10.59788440	    179.80925237	      2.13309182	      2.27444135	     -0.51748934	     -8.06841742	     15.66362083	      0.85084122	     80.10369879	     25.06749238	     19.64385714	     -6.23021041	      5.28356659
      0.08474576	     -7.49664308	    -14.26958579	    100.91557727	      0.18339788	      0.31321841	      0.64690101	     -1.83013135	    -11.04912123	    -12.57576839	      7.31394486	      0.12765242	     32.27424746	     12.77167664	      0.00000000	     -3.37977865	     10.83811112	      5.29615581	      0.92233895	      0.01609785	     21.54350588	    -11.46384798	      0.00000000	      0.31768970	     -0.81493917	      0.01335051	      0.58998155	     -1.08386909	      0.01418492	      0.52193241	     -1.98144309	      0.01418492	      0.36308756	     -1.98144309	      0.01168170	      0.29500666	     -1.66182395	      0.01084729	      0.18152790	     -1.26234077	      0.01001288	      2.26922579	     -9.21875484	      0.07425154	      0.00000000	      0.00000000	     27.02854746	      4.42619529	      0.36403675	     17.48447253	     10.57503301	    178.64541153	      2.19777520	      2.24282042	     -1.00926264	     -8.00789848	     15.53739716	      0.74756214	     80.38113178	     25.01403108	     19.14922498	     -5.95783843	      4.94430377
      0.10169492	     -7.52740398	    -14.31382653	    100.63613056	      0.18367896	      0.31340016	      0.64753106	     -1.49558132	    -11.20286738	    -13.37478549	      7.56150654	      0.13197319	     32.45065722	     13.74688208	      0.00000000	     -3.22620470	     10.89877705	      5.26077029	      0.89124079	      0.01555509	     21.48089713	    -11.69175632	      0.00000000	      0.31564252	     -0.81261920	      0.05961418	      0.58617972	     -1.08078353	      0.06334007	      0.51856910	     -1.97580232	      0.06334007	      0.36074784	     -1.97580232	      0.05216241	      0.29310564	     -1.65709307	      0.04843652	      0.18035814	     -1.25874714	      0.04471064	      2.25460295	     -9.19251090	      0.33155621	      0.00000000	      0.00000000	     27.10777573	      4.42551560	      0.64811689	     17.43220976	     10.53853131	    176.94298487	      2.39032223	      2.29058631	     -1.48703494	     -8.07105804	     15.48455791	      0.66903584	     80.68554931	     24.94482495	     18.67241395	     -5.67326387	      4.67287351
